<?xml version="1.0" encoding="utf-8"?>
<!-- Generator: Adobe Illustrator 21.0.2, SVG Export Plug-In . SVG Version: 6.00 Build 0)  -->
<svg version="1.1" id="Layer_1" xmlns="http://www.w3.org/2000/svg" xmlns:xlink="http://www.w3.org/1999/xlink" x="0px" y="0px"
	 viewBox="0 0 256 256" style="enable-background:new 0 0 256 256;" xml:space="preserve">
<style type="text/css">
	.st0{fill:#FFBB00;}
</style>
<g>
	<path class="st0" d="M128,248C61.8,248,8,194.2,8,128S61.8,8,128,8s120,53.8,120,120S194.2,248,128,248z"/>
	<path d="M128,12c31,0,60.1,12.1,82,34c21.9,21.9,34,51,34,82s-12.1,60.1-34,82c-21.9,21.9-51,34-82,34s-60.1-12.1-82-34
		c-21.9-21.9-34-51-34-82s12.1-60.1,34-82C67.9,24.1,97,12,128,12 M128,4C59.5,4,4,59.5,4,128s55.5,124,124,124s124-55.5,124-124
		S196.5,4,128,4L128,4z"/>
</g>
</svg>
