<?xml version="1.0" encoding="utf-8"?>
<!-- Generator: Adobe Illustrator 21.0.2, SVG Export Plug-In . SVG Version: 6.00 Build 0)  -->
<svg version="1.1" xmlns="http://www.w3.org/2000/svg" xmlns:xlink="http://www.w3.org/1999/xlink" x="0px" y="0px"
	 viewBox="0 0 256 256" style="enable-background:new 0 0 256 256;" xml:space="preserve">
<style type="text/css">
	.st0{fill:#020202;}
	.st1{fill:#FFFFFF;}
</style>
<g id="Layer_1">
	<g>
		<path class="st0" d="M128,247C62.4,247,9,193.6,9,128C9,62.4,62.4,9,128,9c65.6,0,119,53.4,119,119C247,193.6,193.6,247,128,247z"
			/>
		<path d="M128,14c30.5,0,59.1,11.9,80.6,33.4C230.1,68.9,242,97.5,242,128s-11.9,59.1-33.4,80.6C187.1,230.1,158.5,242,128,242
			s-59.1-11.9-80.6-33.4C25.9,187.1,14,158.5,14,128s11.9-59.1,33.4-80.6C68.9,25.9,97.5,14,128,14 M128,4C59.5,4,4,59.5,4,128
			s55.5,124,124,124s124-55.5,124-124S196.5,4,128,4L128,4z"/>
	</g>
</g>
<g id="Layer_2">
	<g>
		<path class="st1" d="M125.7,223.5c-5.1,0-9.2-4.1-9.2-9.2V41.7c0-5.1,4.1-9.2,9.2-9.2h4.6c5.1,0,9.2,4.1,9.2,9.2v172.6
			c0,5.1-4.1,9.2-9.2,9.2H125.7z"/>
		<path class="st1" d="M130.3,33c4.8,0,8.7,3.9,8.7,8.7v172.6c0,4.8-3.9,8.7-8.7,8.7h-4.6c-4.8,0-8.7-3.9-8.7-8.7V41.7
			c0-4.8,3.9-8.7,8.7-8.7H130.3 M130.3,32h-4.6c-5.4,0-9.7,4.3-9.7,9.7v172.6c0,5.4,4.3,9.7,9.7,9.7h4.6c5.4,0,9.7-4.3,9.7-9.7V41.7
			C140,36.3,135.7,32,130.3,32L130.3,32z"/>
	</g>
	<g>
		<path class="st1" d="M41.7,139.5c-5.1,0-9.2-4.1-9.2-9.2v-4.6c0-5.1,4.1-9.2,9.2-9.2h172.6c5.1,0,9.2,4.1,9.2,9.2v4.6
			c0,5.1-4.1,9.2-9.2,9.2H41.7z"/>
		<path class="st1" d="M214.3,117c4.8,0,8.7,3.9,8.7,8.7v4.6c0,4.8-3.9,8.7-8.7,8.7H41.7c-4.8,0-8.7-3.9-8.7-8.7v-4.6
			c0-4.8,3.9-8.7,8.7-8.7H214.3 M214.3,116H41.7c-5.4,0-9.7,4.3-9.7,9.7v4.6c0,5.4,4.3,9.7,9.7,9.7h172.6c5.4,0,9.7-4.3,9.7-9.7
			v-4.6C224,120.3,219.7,116,214.3,116L214.3,116z"/>
	</g>
</g>
</svg>
